<?xml version="1.0" encoding="UTF-8" standalone="no"?>
<svg
   xmlns:dc="http://purl.org/dc/elements/1.1/"
   xmlns:cc="http://creativecommons.org/ns#"
   xmlns:rdf="http://www.w3.org/1999/02/22-rdf-syntax-ns#"
   xmlns:svg="http://www.w3.org/2000/svg"
   xmlns="http://www.w3.org/2000/svg"
   xmlns:sodipodi="http://sodipodi.sourceforge.net/DTD/sodipodi-0.dtd"
   xmlns:inkscape="http://www.inkscape.org/namespaces/inkscape"
   width="210mm"
   height="297mm"
   viewBox="0 0 210 297"
   version="1.1"
   id="svg8"
   inkscape:version="1.0.2-2 (e86c870879, 2021-01-15)"
   sodipodi:docname="logo2.svg">
  <defs
     id="defs2" />
  <sodipodi:namedview
     id="base"
     pagecolor="#ffffff"
     bordercolor="#666666"
     borderopacity="1.0"
     inkscape:pageopacity="0.0"
     inkscape:pageshadow="2"
     inkscape:zoom="0.98994949"
     inkscape:cx="246.62098"
     inkscape:cy="586.23731"
     inkscape:document-units="mm"
     inkscape:current-layer="layer1"
     inkscape:document-rotation="0"
     showgrid="false"
     inkscape:window-width="1431"
     inkscape:window-height="1030"
     inkscape:window-x="128"
     inkscape:window-y="0"
     inkscape:window-maximized="0" />
  <metadata
     id="metadata5">
    <rdf:RDF>
      <cc:Work
         rdf:about="">
        <dc:format>image/svg+xml</dc:format>
        <dc:type
           rdf:resource="http://purl.org/dc/dcmitype/StillImage" />
        <dc:title></dc:title>
      </cc:Work>
    </rdf:RDF>
  </metadata>
  <g
     inkscape:label="Layer 1"
     inkscape:groupmode="layer"
     id="layer1">
    <path
       d="m 152.59277,102.82275 c 0,-8.598955 -10.76854,-16.748121 -27.27854,-21.801663 3.81,-16.8275 2.11666,-30.215416 -5.34459,-34.501666 -1.71979,-1.005417 -3.73062,-1.481667 -5.92666,-1.481667 v 5.900208 c 1.21708,0 2.19604,0.238125 3.01625,0.687917 3.59833,2.06375 5.15937,9.921875 3.94229,20.028958 -0.29104,2.487083 -0.76729,5.106458 -1.34938,7.77875 -5.18583,-1.27 -10.84791,-2.248958 -16.80104,-2.883958 C 99.279226,71.654837 95.575059,67.209837 91.844434,63.320462 100.46985,55.303587 108.5661,50.911504 114.06943,50.911504 v -5.900208 c -7.27604,0 -16.801038,5.185833 -26.431871,14.181666 C 78.006726,50.250046 68.481726,45.117129 61.205685,45.117129 v 5.900208 c 5.476875,0 13.599583,4.365625 22.224999,12.329584 -3.704166,3.889374 -7.408333,8.307916 -10.927291,13.202708 -5.979583,0.635 -11.641667,1.613958 -16.8275,2.910416 -0.608542,-2.645833 -1.058333,-5.212291 -1.375833,-7.672916 -1.243542,-10.107083 0.291041,-17.965208 3.862916,-20.055417 0.79375,-0.47625 1.825625,-0.687916 3.042709,-0.687916 v -5.900209 c -2.2225,0 -4.233334,0.47625 -5.979584,1.481667 -7.434791,4.28625 -9.101666,17.647708 -5.265208,34.422291 -16.457083,5.08 -27.172708,13.202708 -27.172708,21.775205 0,8.59896 10.768542,16.74813 27.278541,21.80167 -3.81,16.8275 -2.116666,30.21542 5.344584,34.50167 1.719791,1.00541 3.730625,1.48166 5.953125,1.48166 7.276041,0 16.801041,-5.18583 26.431874,-14.18166 9.630833,8.94291 19.155831,14.07583 26.431871,14.07583 2.2225,0 4.23334,-0.47625 5.97959,-1.48167 7.43479,-4.28625 9.10166,-17.64771 5.26521,-34.42229 16.40416,-5.05354 27.11979,-13.20271 27.11979,-21.77521 z M 118.14402,85.175045 c -0.97896,3.413125 -2.19604,6.932083 -3.57188,10.451042 -1.08479,-2.116667 -2.2225,-4.233334 -3.46604,-6.35 -1.21708,-2.116667 -2.51354,-4.180417 -3.81,-6.19125 3.75708,0.555625 7.38188,1.243542 10.84792,2.090208 z M 106.0261,113.35317 c -2.06375,3.57187 -4.18042,6.95854 -6.376458,10.10708 -3.942291,0.34396 -7.937499,0.52917 -11.959166,0.52917 -3.995208,0 -7.990417,-0.18521 -11.90625,-0.50271 -2.196042,-3.14854 -4.339167,-6.50875 -6.402917,-10.05417 -2.010833,-3.46604 -3.836458,-6.985 -5.503333,-10.53041 1.640417,-3.545418 3.4925,-7.090835 5.476875,-10.556877 2.06375,-3.571874 4.180417,-6.958541 6.376458,-10.107083 3.942292,-0.343958 7.9375,-0.529166 11.959167,-0.529166 3.995208,0 7.990416,0.185208 11.90625,0.502708 2.196044,3.148542 4.339164,6.50875 6.402914,10.054166 2.01084,3.466042 3.83646,6.985 5.50334,10.530422 -1.66688,3.54541 -3.4925,7.09083 -5.47688,10.55687 z m 8.54604,-3.43958 c 1.42875,3.54541 2.64584,7.09083 3.65125,10.53041 -3.46604,0.84667 -7.11729,1.56104 -10.90083,2.11667 1.29646,-2.03729 2.59292,-4.1275 3.81,-6.27063 1.21708,-2.11666 2.35479,-4.25979 3.43958,-6.37645 z m -26.828747,28.23104 c -2.460625,-2.54 -4.92125,-5.37104 -7.355417,-8.46667 2.38125,0.10583 4.815417,0.18521 7.276042,0.18521 2.487083,0 4.947708,-0.0529 7.355416,-0.18521 -2.38125,3.09563 -4.841875,5.92667 -7.276041,8.46667 z m -19.685,-15.58396 c -3.757083,-0.55563 -7.381875,-1.24354 -10.847917,-2.09021 0.978959,-3.41312 2.196042,-6.93208 3.571875,-10.45104 1.084792,2.11667 2.2225,4.23333 3.466042,6.35 1.243542,2.11667 2.513542,4.18042 3.81,6.19125 z M 87.611101,67.500879 c 2.460625,2.54 4.92125,5.371041 7.355417,8.466666 -2.38125,-0.105833 -4.815417,-0.185208 -7.276042,-0.185208 -2.487083,0 -4.947708,0.05292 -7.355417,0.185208 2.38125,-3.095625 4.841875,-5.926666 7.276042,-8.466666 z M 68.031935,83.084837 c -1.296459,2.037292 -2.592917,4.1275 -3.81,6.270625 -1.217084,2.116666 -2.354792,4.233333 -3.439584,6.35 -1.42875,-3.545417 -2.645833,-7.090833 -3.65125,-10.530417 3.466042,-0.820208 7.117292,-1.534583 10.900834,-2.090208 z M 44.087143,116.21067 c -9.36625,-3.99521 -15.425208,-9.23396 -15.425208,-13.38792 0,-4.153955 6.058958,-9.419163 15.425208,-13.387913 2.275417,-0.978958 4.7625,-1.852083 7.328958,-2.672292 1.508125,5.185833 3.4925,10.583333 5.953125,16.113125 -2.434166,5.50333 -4.392083,10.87437 -5.87375,16.03375 -2.619375,-0.82021 -5.106458,-1.71979 -7.408333,-2.69875 z m 14.234583,37.80896 c -3.598333,-2.06375 -5.159375,-9.92188 -3.942291,-20.02896 0.291041,-2.48708 0.767291,-5.10646 1.349375,-7.77875 5.185833,1.27 10.847916,2.24896 16.801041,2.88396 3.571875,4.89479 7.276042,9.33979 11.006667,13.22916 -8.625417,8.01688 -16.721667,12.40896 -22.225,12.40896 -1.190625,-0.0265 -2.196042,-0.26458 -2.989792,-0.71437 z m 62.759164,-20.16125 c 1.24354,10.10708 -0.29104,17.96521 -3.86291,20.05541 -0.79375,0.47625 -1.82563,0.68792 -3.04271,0.68792 -5.47688,0 -13.59959,-4.36562 -22.225002,-12.32958 3.704166,-3.88938 7.408333,-8.30792 10.927292,-13.20271 5.97958,-0.635 11.64167,-1.61396 16.8275,-2.91042 0.60854,2.67229 1.08479,5.23875 1.37583,7.69938 z m 10.18646,-17.64771 c -2.27542,0.97896 -4.7625,1.85208 -7.32896,2.67229 -1.50812,-5.18583 -3.4925,-10.58333 -5.95312,-16.11312 2.43416,-5.503337 4.39208,-10.874378 5.87375,-16.033753 2.61937,0.820208 5.10646,1.719792 7.43479,2.69875 9.36625,3.995208 15.42521,9.233958 15.42521,13.387913 -0.0265,4.15396 -6.08542,9.41917 -15.45167,13.38792 z M 61.179226,45.117129 Z"
       id="path26"
       style="fill:#61dafb;stroke-width:0.264583" />
    <circle
       cx="87.664017"
       cy="102.82275"
       r="12.091458"
       id="circle28"
       style="fill:#00ff00;stroke-width:0.264583" />
    <path
       d="M 114.01652,45.037754 Z"
       id="path30"
       style="fill:#61dafb;stroke-width:0.264583" />
  </g>
</svg>
